<svg width="60" height="77" viewBox="0 0 60 77" fill="none" xmlns="http://www.w3.org/2000/svg">
<g clip-path="url(#clip0_2001_3186)">
<path d="M27.5864 76.5515C41.2983 76.5515 52.414 75.2393 52.414 73.6205C52.414 72.0017 41.2983 70.6895 27.5864 70.6895C13.8745 70.6895 2.75879 72.0017 2.75879 73.6205C2.75879 75.2393 13.8745 76.5515 27.5864 76.5515Z" fill="#B2784A"/>
<path fill-rule="evenodd" clip-rule="evenodd" d="M53.0724 55.6994C54.459 52.1432 55.1724 48.3319 55.1724 44.4829H50.8276C50.8276 47.7433 50.2283 50.9719 49.0638 53.9839C47.8993 56.9963 46.1924 59.7332 44.0407 62.0388C41.8886 64.3443 39.3341 66.1729 36.5227 67.4205C33.7114 68.6684 30.6982 69.3105 27.6552 69.3105C24.6121 69.3105 21.5989 68.6684 18.7875 67.4205C15.9761 66.1729 13.4215 64.3443 11.2698 62.0388C9.11803 59.7332 7.41117 56.9963 6.24665 53.9839C5.08214 50.9719 4.48276 47.7433 4.48276 44.4829H0C0 48.3319 0.713538 52.1432 2.09987 55.6994C3.48621 59.2557 5.5182 62.4867 8.07982 65.2084C10.6414 67.9301 13.6825 70.0891 17.0294 71.5622C20.3763 73.0349 23.9635 73.7932 27.5862 73.7932C31.2089 73.7932 34.7962 73.0349 38.1431 71.5622C41.49 70.0891 44.531 67.9301 47.0927 65.2084C49.6541 62.4867 51.6862 59.2557 53.0724 55.6994Z" fill="#B2784A"/>
<path fill-rule="evenodd" clip-rule="evenodd" d="M46.7984 53.0601C47.8274 50.3988 48.3677 47.5505 48.3901 44.6712C46.0236 45.0426 40.8553 45.9477 37.4139 47.2415C34.6808 48.2691 32.8204 50.0491 31.0383 51.7543C28.7257 53.967 26.5448 56.0539 22.7587 56.207C19.75 56.3288 17.91 56.0822 15.1725 54.8277C10.3916 52.637 6.55176 44.4829 6.55176 44.4829C6.55176 47.4264 7.09286 50.3408 8.14418 53.0601C9.19549 55.7798 10.7364 58.2505 12.679 60.3319C14.6215 62.4132 16.9277 64.0643 19.4658 65.1905C22.0039 66.317 24.7241 66.8967 27.4714 66.8967C30.2185 66.8967 32.9389 66.317 35.477 65.1905C38.0149 64.0643 40.3211 62.4132 42.2636 60.3319C44.2063 58.2505 45.7474 55.7798 46.7984 53.0601Z" fill="#8F542E"/>
<path fill-rule="evenodd" clip-rule="evenodd" d="M57.3165 50.5767C56.4948 49.7633 55.5134 49.1295 54.4344 48.7153L51.4416 56.5112L47.1816 63.6936C48.1758 64.2833 49.2816 64.6602 50.4292 64.8002C51.5765 64.9405 52.7406 64.8408 53.8475 64.5077C54.9544 64.1746 55.9803 63.6153 56.8599 62.8653C57.7396 62.1153 58.4537 61.1908 58.9575 60.1505C59.4613 59.1102 59.7437 57.9764 59.7865 56.8212C59.8296 55.666 59.632 54.5146 59.2068 53.4398C58.7817 52.3646 58.1379 51.3898 57.3165 50.5767ZM55.2979 53.1936C54.8158 52.7164 54.2396 52.3443 53.6061 52.1012L51.8496 56.6774L49.3489 60.8933C49.9327 61.2395 50.5816 61.4605 51.2551 61.5429C51.9289 61.625 52.612 61.5667 53.2617 61.3712C53.9117 61.1757 54.5137 60.8474 55.0299 60.4071C55.5465 59.9671 55.9658 59.4243 56.2613 58.8136C56.5572 58.2029 56.7227 57.5374 56.7479 56.8595C56.773 56.1812 56.6572 55.5053 56.4075 54.8743C56.1582 54.2433 55.7803 53.6712 55.2979 53.1936Z" fill="#B2784A"/>
<path d="M20.0019 10.3447C20.0019 10.3447 19.1335 15.6101 20.0019 18.793C21.4339 24.0421 28.3198 23.9314 29.1398 29.3102C29.9011 34.3042 24.4846 41.3791 24.4846 41.3791C24.4846 41.3791 25.3112 36.4329 24.4846 33.4481C23.1103 28.485 16.8371 28.6414 15.6915 23.6206C14.4791 18.3062 20.0019 10.3447 20.0019 10.3447Z" fill="#8F542E"/>
<path d="M22.7589 15.862C20.937 9.60639 27.9313 0 27.9313 0C27.9313 0 25.2071 8.45922 26.8968 13.4482C28.6695 18.6823 35.3492 18.3994 36.552 23.793C37.9627 30.1187 29.8278 38.9654 29.8278 38.9654C29.8278 38.9654 33.9928 30.8987 32.5865 25.862C31.1139 20.5883 24.2899 21.1191 22.7589 15.862Z" fill="#8F542E"/>
</g>
<defs>
<clipPath id="clip0_2001_3186">
<rect width="60" height="76.5516" fill="white"/>
</clipPath>
</defs>
</svg>
